<mxfile host="app.diagrams.net" modified="2024-04-16T14:12:10.810Z" agent="Mozilla/5.0 (Windows NT 10.0; Win64; x64) AppleWebKit/537.36 (KHTML, like Gecko) Chrome/123.0.0.0 Safari/537.36 Edg/123.0.0.0" version="24.2.5" etag="fc3xBmLj9CsE4KpaXgzn" type="github">
  <diagram name="第 1 页" id="UOggXcbhAaj1K5TnprWY">
    <mxGraphModel>
      <root>
        <mxCell id="0" />
        <mxCell id="1" parent="0" />
      </root>
    </mxGraphModel>
  </diagram>
</mxfile>
